<svg width="430" height="38" viewBox="0 0 430 38" fill="none" xmlns="http://www.w3.org/2000/svg">
<path fill-rule="evenodd" clip-rule="evenodd" d="M233.953 8.12939C235.541 7.98495 236.75 7.30961 237.881 6.02206C238.459 5.36539 239.02 4.54439 239.609 3.54893C239.809 3.21192 240.3 3.35808 240.212 3.73971C240.016 4.58868 239.619 5.20187 238.74 5.69553C238.544 5.80589 238.446 6.03397 238.5 6.25256C238.797 7.44118 238.946 8.23953 238.889 8.84943C238.837 9.40105 238.615 9.81329 238.053 10.2296C237.926 10.3239 237.851 10.473 237.851 10.6314V12.1314C237.851 12.4076 238.074 12.6314 238.351 12.6314C238.592 12.6314 238.743 12.8946 238.649 13.1163C238.622 13.1786 238.597 13.2416 238.574 13.3052C238.122 14.5522 237.647 15.8697 237.113 17.0838C237.104 17.1037 237.095 17.1236 237.087 17.1437C237.075 17.1729 237.031 17.1695 237.024 17.1386L235.398 10.0201C235.346 9.7927 235.144 9.63145 234.911 9.63145H230.734H193H190.5C190.269 9.63145 190.068 9.78959 190.014 10.0141L188.288 17.1617C188.269 17.2375 188.163 17.2464 188.129 17.1758C187.502 15.8438 186.755 14.546 186.111 13.2218C186.088 13.1763 186.066 13.1312 186.043 13.0867C185.938 12.8842 186.078 12.6314 186.306 12.6314H186.978C187.021 12.6314 187.058 12.6597 187.07 12.7007C187.082 12.7421 187.126 12.7654 187.167 12.753L187.589 12.6259C187.844 12.5494 187.984 12.2821 187.926 12.023C187.795 11.4328 187.819 11.0051 188.048 10.2821C188.102 10.1112 188.06 9.92441 187.939 9.79259C187.226 9.01891 186.881 8.47863 186.791 7.94914C186.703 7.43426 186.841 6.82497 187.372 5.87575L187.405 5.81839C187.477 5.68874 187.658 5.67299 187.755 5.78535C188.85 7.04992 190.112 7.86707 191.944 8.12651L191.979 8.13145H192.014H233.907H233.93L233.953 8.12939ZM239.514 13.6464C239.628 13.3345 239.804 13.03 240.057 12.6835C240.081 12.6507 240.119 12.6314 240.16 12.6314C240.208 12.6314 240.252 12.6584 240.274 12.7015C240.55 13.2528 240.736 13.7476 240.84 14.2363C241.062 15.2712 240.939 16.3503 240.414 17.9779C240.37 18.1144 240.386 18.2632 240.46 18.3866C240.805 18.9688 240.896 19.3426 240.88 19.662C240.869 19.8734 240.811 20.0901 240.7 20.3581C240.63 20.527 240.462 20.6314 240.279 20.6314C240.089 20.6314 239.921 20.5152 239.829 20.349C239.694 20.1073 239.513 19.881 239.242 19.6942C238.467 19.1607 237.643 18.3989 238.008 17.532C238.23 17.006 238.59 16.545 239.282 16.0337C239.439 15.9177 239.515 15.7208 239.475 15.5296C239.301 14.6929 239.336 14.1374 239.514 13.6464ZM242.069 13.6314C241.862 13.6314 241.684 13.5011 241.616 13.3053C241.507 12.9868 241.729 12.6314 242.066 12.6314H258.028H263.106C263.134 12.6314 263.162 12.6291 263.19 12.6243C263.788 12.5223 264.326 12.4203 264.875 12.1857C265.431 11.9485 265.972 11.5882 266.616 11.001C266.639 10.9807 266.659 10.9584 266.677 10.9344L268.578 8.43936C269.35 7.47612 269.837 6.68315 270.138 5.85138C270.14 5.84449 270.15 5.84568 270.151 5.85295C270.197 6.26061 270.208 6.62411 270.182 6.95753C270.115 7.8319 269.792 8.52902 269.086 9.29195C268.972 9.41557 268.927 9.58845 268.968 9.75188C269.166 10.5498 269.174 11.0569 269.031 11.4598C268.889 11.8597 268.566 12.2451 267.893 12.7243C267.69 12.8692 267.625 13.1418 267.741 13.3631L271.87 21.2634C272.005 21.5212 272.025 21.8237 271.926 22.0971C271.605 22.9819 270.363 23.0154 269.982 22.1547C268.321 18.4018 267.149 16.2464 265.416 13.8393C265.322 13.7088 265.171 13.6314 265.01 13.6314H242.069ZM273.168 17.9783C272.823 18.6987 271.72 18.8176 271.35 18.1097L269.671 14.8974C269.178 13.9548 269.566 12.8521 269.949 11.86C269.958 11.8384 269.966 11.8167 269.973 11.7948C270.406 10.5773 270.635 9.23848 271.004 8.00007C271.095 7.695 271.153 7.3752 271.179 7.03443C271.255 6.04519 271.061 4.90576 270.696 3.47945C270.626 3.20397 270.362 3.02414 270.08 3.05482C269.797 3.08549 269.58 3.31782 269.559 3.60142C269.504 4.34848 269.404 4.93965 269.197 5.51168C268.947 6.20321 268.53 6.90028 267.794 7.81844L267.786 7.82848L266.961 8.91138C266.262 9.82982 265.545 10.8126 264.483 11.266C263.583 11.6499 262.572 11.6314 261.594 11.6314H258.028H241.128C240.946 11.6314 240.778 11.5334 240.685 11.3766C240.51 11.0803 240.094 11.046 239.872 11.3095C239.835 11.3543 239.797 11.3987 239.761 11.4429C239.662 11.5616 239.516 11.6314 239.362 11.6314C239.08 11.6314 238.851 11.3989 238.851 11.1164C238.851 10.9637 238.92 10.8187 239.03 10.7131C239.546 10.2185 239.819 9.64857 239.885 8.94249C240.03 7.38268 240.625 5.81988 241.09 4.32371C241.126 4.20686 241.158 4.08701 241.186 3.96413C241.404 3.01708 241.398 1.87041 241.392 0.553611L241.391 0.544818L241.391 0.535542C241.39 0.297452 241.227 0.0908375 240.995 0.035541L240.917 0.0169228C240.64 -0.049299 240.353 0.0832854 240.222 0.336705C239.027 2.65471 238.085 4.27588 237.13 5.36187C236.148 6.4797 235.171 7.00948 233.884 7.13145H193.508C192.537 7.13145 191.541 7.12692 190.646 6.75148C189.816 6.40354 189.144 5.86177 188.511 5.13085C187.646 4.13205 186.874 2.80403 185.899 1.12701C185.836 1.01888 185.773 0.909295 185.708 0.798256C185.565 0.551862 185.271 0.435503 184.998 0.51588C184.724 0.596256 184.542 0.852716 184.544 1.13779C184.546 1.34848 184.544 1.55279 184.542 1.75528V1.75582C184.541 1.89519 184.54 2.0337 184.54 2.17282C184.54 2.65137 184.554 3.13126 184.651 3.59147C184.75 4.06107 184.935 4.51151 185.271 4.93577C185.746 5.53484 185.967 6.32675 185.823 7.07744C185.755 7.43185 185.747 7.7749 185.805 8.11689C185.913 8.75076 186.241 9.32033 186.712 9.90458C186.893 10.13 186.953 10.4532 186.903 10.7385C186.817 11.23 186.431 11.6314 185.932 11.6314H185.462C185.199 11.6314 184.95 11.5129 184.781 11.3109C184.539 11.0215 184.076 11.0937 183.934 11.443C183.888 11.5566 183.778 11.6314 183.655 11.6314H165.794C163.496 11.6314 161.002 11.3788 159.357 9.77369C158.491 8.92848 157.995 8.33305 157.639 7.77892C157.282 7.22265 157.054 6.6911 156.734 5.93659C156.641 5.71486 156.551 5.50893 156.466 5.31454C156.031 4.31676 155.729 3.62308 155.693 2.65651C155.683 2.37596 155.482 2.13171 155.203 2.09848C154.924 2.06525 154.668 2.2539 154.613 2.52931C154.553 2.83535 154.492 3.12743 154.434 3.40844L154.413 3.51183C154.332 3.89957 154.256 4.26849 154.19 4.61884C154.047 5.37993 153.947 6.08355 153.963 6.76802C153.981 7.53551 154.143 8.2541 154.509 8.99701C155.097 10.189 155.258 11.6345 155.856 12.8216C156 13.108 156.18 13.3393 156.339 13.5233C156.407 13.6019 156.474 13.6752 156.532 13.7383L156.532 13.7387C156.539 13.7461 156.541 13.7566 156.538 13.7662C156.151 14.9684 155.659 15.9112 155.121 16.8154C154.94 17.1185 154.751 17.4231 154.557 17.7344L154.557 17.7349C154.115 18.4451 153.074 18.5437 152.445 17.9915C152.253 17.8227 152.05 17.6498 151.832 17.464L151.832 17.4638C151.434 17.1247 150.984 16.7422 150.458 16.262C150.165 15.9947 149.692 16.1589 149.628 16.5504C149.43 17.7537 149.453 18.728 149.761 19.6708C149.78 19.7295 149.8 19.7879 149.821 19.8461C150.422 21.4886 150.888 23.2431 150.89 24.9921L150.89 25.1314V28.1314C150.89 28.4076 151.114 28.6314 151.39 28.6314H155.6C155.803 28.6314 155.968 28.7964 155.968 29V34.75C155.968 35.1713 155.627 35.5129 155.205 35.5129H151.971C150.926 35.5129 150.078 34.6657 150.078 33.6207V33.3829C150.078 33.3203 150.089 33.2583 150.111 33.1995C150.477 32.1894 150.878 31.0852 150.393 29.8303C149.901 28.5577 148.56 27.2647 145.968 25.5317C145.848 25.4392 145.618 25.2789 145.299 25.264C144.959 25.2481 144.691 25.404 144.518 25.5229C141.917 27.2602 140.572 28.5554 140.079 29.8302C139.594 31.0852 139.995 32.1895 140.361 33.1996C140.383 33.2584 140.393 33.3204 140.393 33.3829V33.6209C140.393 34.6658 139.546 35.5129 138.501 35.5129H135.209C134.164 35.5129 133.317 34.6657 133.317 33.6207V33.3829C133.317 33.3203 133.328 33.2583 133.349 33.1995C133.715 32.1894 134.116 31.0852 133.631 29.8303C133.139 28.5577 131.799 27.2647 129.206 25.5317C129.086 25.4392 128.856 25.2789 128.538 25.264C128.198 25.2481 127.929 25.404 127.757 25.5229C125.155 27.2602 123.81 28.5554 123.317 29.8302C122.832 31.0852 123.233 32.1895 123.599 33.1996C123.621 33.2584 123.632 33.3204 123.632 33.3829V33.6209C123.632 34.6658 122.785 35.5129 121.74 35.5129H118.447C117.402 35.5129 116.555 34.6657 116.555 33.6207V33.3829C116.555 33.3203 116.566 33.2583 116.587 33.1995C116.954 32.1894 117.354 31.0852 116.869 29.8303C116.378 28.5577 115.037 27.2647 112.445 25.5317C112.325 25.4392 112.094 25.2789 111.776 25.264C111.436 25.2481 111.167 25.404 110.995 25.5229C108.393 27.2602 107.048 28.5554 106.555 29.8302C106.07 31.0852 106.471 32.1895 106.838 33.1996C106.859 33.2584 106.87 33.3204 106.87 33.3829V33.6209C106.87 34.6658 106.023 35.5129 104.978 35.5129H101.685C100.64 35.5129 99.7933 34.6658 99.7933 33.6208V33.3829C99.7933 33.3203 99.8041 33.2583 99.8255 33.1995C100.192 32.1894 100.593 31.0852 100.108 29.8303C99.616 28.5577 98.2753 27.2647 95.683 25.5317C95.563 25.4392 95.3324 25.2789 95.0143 25.264C94.6741 25.2481 94.4055 25.404 94.2332 25.5229C91.6313 27.2602 90.2865 28.5554 89.7937 29.8302C89.3086 31.0852 89.7094 32.1895 90.0761 33.1996C90.0974 33.2584 90.1083 33.3204 90.1083 33.3829V33.6209C90.1083 34.6658 89.2612 35.5129 88.2163 35.5129H84.9239C83.8789 35.5129 83.0318 34.6658 83.0318 33.6208V33.3829C83.0318 33.3203 83.0427 33.2583 83.064 33.1995C83.4305 32.1894 83.8311 31.0852 83.3462 29.8303C82.8545 28.5577 81.5138 27.2647 78.9216 25.5317C78.8015 25.4392 78.5709 25.2789 78.2529 25.264C77.9127 25.2481 77.6441 25.404 77.4717 25.5229C74.8699 27.2602 73.525 28.5554 73.0322 29.8302C72.5471 31.0852 72.948 32.1895 73.3146 33.1996C73.3359 33.2584 73.3468 33.3204 73.3468 33.3829V33.6209C73.3468 34.6658 72.4997 35.5129 71.4548 35.5129H68.1622C67.1172 35.5129 66.2701 34.6658 66.2701 33.6208V33.3829C66.2701 33.3203 66.281 33.2583 66.3023 33.1995C66.6687 32.1894 67.0694 31.0852 66.5845 29.8303C66.0928 28.5577 64.7521 27.2647 62.1598 25.5317C62.0398 25.4392 61.8092 25.2789 61.4911 25.264C61.1509 25.2481 60.8823 25.404 60.71 25.5229C58.1081 27.2602 56.7633 28.5554 56.2705 29.8302C55.7854 31.0852 56.1862 32.1895 56.5529 33.1996C56.5742 33.2584 56.5851 33.3204 56.5851 33.3829V33.6209C56.5851 34.6658 55.738 35.5129 54.6931 35.5129H51.4005C50.3555 35.5129 49.5083 34.6658 49.5083 33.6208V33.3829C49.5083 33.3203 49.5192 33.2583 49.5405 33.1995C49.907 32.1894 50.3077 31.0852 49.8228 29.8303C49.3311 28.5577 47.9904 27.2647 45.3981 25.5317C45.2781 25.4392 45.0475 25.2789 44.7294 25.264C44.3892 25.2481 44.1206 25.404 43.9483 25.5228C43.9483 25.5228 43.9483 25.5229 43.9483 25.5229C43.9483 25.5229 43.9483 25.5229 43.9483 25.5229C41.3464 27.2602 40.0016 28.5554 39.5088 29.8302C39.0237 31.0852 39.4245 32.1895 39.7911 33.1996C39.8125 33.2584 39.8234 33.3204 39.8234 33.3829V33.6209C39.8234 34.6658 38.9763 35.5129 37.9314 35.5129H34.639C33.594 35.5129 32.7469 34.6658 32.7469 33.6208V33.3829C32.7469 33.3203 32.7578 33.2583 32.7791 33.1995C33.1455 32.1894 33.5462 31.0852 33.0613 29.8303C32.5696 28.5577 31.2289 27.2647 28.6366 25.5317C28.5166 25.4392 28.286 25.2789 27.968 25.264C27.6277 25.2481 27.3592 25.404 27.1868 25.5228C27.1868 25.5228 27.1868 25.5229 27.1868 25.5229C27.1868 25.5229 27.1868 25.5229 27.1868 25.5229C24.5849 27.2602 23.2401 28.5554 22.7473 29.8302C22.2622 31.0852 22.6631 32.1895 23.0297 33.1996C23.051 33.2584 23.0619 33.3204 23.0619 33.3829V33.6209C23.0619 34.6658 22.2148 35.5129 21.1699 35.5129H17.8773C16.8323 35.5129 15.9851 34.6658 15.9851 33.6208V33.3829C15.9851 33.3203 15.996 33.2583 16.0174 33.1995C16.3838 32.1894 16.7845 31.0852 16.2996 29.8303C15.8079 28.5577 14.4672 27.2647 11.8749 25.5317C11.7549 25.4392 11.5243 25.2789 11.2062 25.264C10.866 25.2481 10.5974 25.404 10.4251 25.5228C10.4251 25.5228 10.4251 25.5229 10.4251 25.5229C10.4251 25.5229 10.4251 25.5229 10.4251 25.5229C7.82323 27.2602 6.47837 28.5554 5.9856 29.8302C5.5005 31.0852 5.90134 32.1895 6.26795 33.1996C6.28926 33.2584 6.30016 33.3204 6.30016 33.3829V33.6209C6.30016 34.6658 5.45309 35.5129 4.40817 35.5129H1.11556C0.0705643 35.5129 -0.776571 34.6658 -0.776571 33.6208V33.3829C-0.776571 33.3203 -0.765673 33.2583 -0.744366 33.1995C-0.37789 32.1894 0.0227518 31.0852 -0.46212 29.8303C-0.953856 28.5577 -2.2945 27.2647 -4.88679 25.5317C-5.00683 25.4392 -5.23743 25.2789 -5.55548 25.264C-5.89569 25.2481 -6.16427 25.404 -6.3366 25.5228C-6.33661 25.5228 -6.33661 25.5229 -6.33661 25.5229C-6.3366 25.5229 -6.3366 25.5229 -6.33661 25.5229C-8.93849 27.2602 -10.2833 28.5554 -10.7761 29.8302C-11.2612 31.0852 -10.8604 32.1895 -10.4938 33.1996C-10.4725 33.2584 -10.4616 33.3204 -10.4616 33.3829V33.7437C-10.4616 34.7208 -11.2537 35.5129 -12.2308 35.5129H-13.25C-13.6642 35.5129 -14 35.8487 -14 36.2629C-14 36.6771 -13.6642 37.0129 -13.25 37.0129H-9.02732C-9.01223 37.0129 -9 37.0007 -9 36.9856V36.9775C-9 36.9669 -8.99139 36.9583 -8.98078 36.9583C-8.97016 36.9583 -8.96156 36.9497 -8.96156 36.939V33.1574C-8.96156 33.0711 -8.97643 32.9855 -9.00552 32.9044L-9.01251 32.8849C-9.44295 31.6837 -9.65532 31.091 -9.37701 30.371C-8.24086 27.4318 -2.99706 27.4315 -1.86131 30.3709C-1.58307 31.091 -1.79539 31.6838 -2.22563 32.8849L-2.23264 32.9044C-2.26171 32.9856 -2.27657 33.0712 -2.27657 33.1574V36.82C-2.27657 36.8964 -2.21466 36.9583 -2.13829 36.9583H-2.02732C-2.01223 36.9583 -2 36.9705 -2 36.9856C-2 37.0007 -1.98777 37.0129 -1.97268 37.0129H6.97268C6.98777 37.0129 7 37.0007 7 36.9856C7 36.9705 7.01223 36.9583 7.02732 36.9583H7.40008C7.62104 36.9583 7.80016 36.7791 7.80016 36.5582V33.1574C7.80016 33.0711 7.78529 32.9855 7.7562 32.9044L7.74921 32.8849C7.31877 31.6837 7.1064 31.091 7.38471 30.371C8.52085 27.4318 13.7647 27.4315 14.9004 30.3709C15.1786 31.091 14.9663 31.6838 14.5361 32.8849L14.5291 32.9044C14.5 32.9856 14.4851 33.0712 14.4851 33.1574V36.7008C14.4851 36.843 14.6004 36.9583 14.7426 36.9583H14.9727C14.9878 36.9583 15 36.9705 15 36.9856C15 37.0007 15.0122 37.0129 15.0273 37.0129H23.9727C23.9878 37.0129 24 37.0007 24 36.9856C24 36.9705 24.0122 36.9583 24.0273 36.9583H24.2809C24.4361 36.9583 24.5619 36.8325 24.5619 36.6773V33.1574C24.5619 33.0711 24.547 32.9855 24.5179 32.9044L24.5109 32.8849C24.0805 31.6837 23.8681 31.091 24.1464 30.371C25.2826 27.4318 30.5264 27.4315 31.6621 30.3709C31.9404 31.091 31.7281 31.6838 31.2978 32.8849L31.2908 32.9044C31.2617 32.9856 31.2469 33.0712 31.2469 33.1574V36.9541C31.2469 36.9564 31.2487 36.9583 31.251 36.9583C31.2533 36.9583 31.2551 36.9601 31.2551 36.9624V36.9854C31.2551 37.0004 31.2673 37.0125 31.2823 37.0125H31.9998C31.9999 37.0125 32 37.0126 32 37.0127C32 37.0128 32.0001 37.0129 32.0002 37.0129H40.9727C40.9878 37.0129 41 37.0007 41 36.9856C41 36.9705 41.0122 36.9583 41.0273 36.9583H41.1617C41.251 36.9583 41.3234 36.8859 41.3234 36.7966V33.1574C41.3234 33.0711 41.3085 32.9855 41.2794 32.9044L41.2724 32.8849C40.842 31.6837 40.6296 31.091 40.9079 30.371C42.044 27.4318 47.2879 27.4315 48.4236 30.3709C48.7018 31.091 48.4895 31.6838 48.0593 32.8849L48.0523 32.9044C48.0232 32.9856 48.0083 33.0712 48.0083 33.1574V35.5087C48.0083 35.511 48.0065 35.5129 48.0042 35.5129C48.0019 35.5129 48 35.5148 48 35.5171V36.2629C48 36.6771 48.3358 37.0129 48.75 37.0129H57.9727C57.9878 37.0129 58 37.0007 58 36.9856C58 36.9705 58.0122 36.9583 58.0273 36.9583H58.0425C58.066 36.9583 58.0851 36.9392 58.0851 36.9157V33.1574C58.0851 33.0711 58.0702 32.9855 58.0411 32.9044L58.0341 32.8849C57.6037 31.6837 57.3913 31.091 57.6696 30.371C58.8058 27.4318 64.0496 27.4316 65.1853 30.3709C65.4636 31.091 65.2512 31.6838 64.821 32.8849L64.814 32.9044C64.7849 32.9856 64.7701 33.0712 64.7701 33.1574V36.8433C64.7701 36.9068 64.8215 36.9583 64.885 36.9583H64.9727C64.9878 36.9583 65 36.9705 65 36.9856C65 37.0007 65.0122 37.0129 65.0273 37.0129H73.9727C73.9878 37.0129 74 37.0007 74 36.9856C74 36.9705 74.0122 36.9583 74.0273 36.9583H74.4234C74.6572 36.9583 74.8468 36.7687 74.8468 36.5349V33.1574C74.8468 33.0711 74.8319 32.9855 74.8028 32.9044L74.7958 32.8849C74.3654 31.6837 74.153 31.091 74.4313 30.371C75.5675 27.4318 80.8113 27.4316 81.947 30.3709C82.2253 31.091 82.013 31.6838 81.5827 32.8849L81.5757 32.9044C81.5466 32.9856 81.5318 33.0712 81.5318 33.1574V36.7242C81.5318 36.8534 81.6366 36.9583 81.7659 36.9583H81.9727C81.9878 36.9583 82 36.9705 82 36.9856C82 37.0007 82.0122 37.0129 82.0273 37.0129H90.9727C90.9878 37.0129 91 37.0007 91 36.9856C91 36.9705 91.0122 36.9583 91.0273 36.9583H91.3041C91.4721 36.9583 91.6083 36.8221 91.6083 36.6541V33.1574C91.6083 33.0711 91.5934 32.9855 91.5643 32.9044L91.5573 32.8849C91.1269 31.6837 90.9145 31.091 91.1928 30.371C92.329 27.4318 97.5728 27.4316 98.7085 30.3709C98.9868 31.091 98.7744 31.6838 98.3442 32.8849L98.3372 32.9044C98.3081 32.9856 98.2933 33.0712 98.2933 33.1574V36.6049C98.2933 36.8001 98.4515 36.9583 98.6466 36.9583H98.9727C98.9878 36.9583 99 36.9705 99 36.9856C99 37.0007 99.0122 37.0129 99.0273 37.0129H107.973C107.988 37.0129 108 37.0007 108 36.9856C108 36.9705 108.012 36.9583 108.027 36.9583H108.185C108.287 36.9583 108.37 36.8754 108.37 36.7733V33.1574C108.37 33.0711 108.355 32.9855 108.326 32.9044L108.319 32.8849C107.889 31.6837 107.676 31.091 107.955 30.371C109.091 27.4318 114.334 27.4316 115.47 30.3709C115.748 31.091 115.536 31.6838 115.106 32.8849L115.099 32.9044C115.07 32.9856 115.055 33.0712 115.055 33.1574V36.4858C115.055 36.7467 115.267 36.9583 115.527 36.9583H115.973C115.988 36.9583 116 36.9705 116 36.9856C116 37.0007 116.012 37.0129 116.027 37.0129H124.973C124.988 37.0129 125 37.0007 125 36.9856C125 36.9705 125.012 36.9583 125.027 36.9583H125.066C125.102 36.9583 125.132 36.9288 125.132 36.8924V33.1574C125.132 33.0711 125.117 32.9855 125.088 32.9044L125.081 32.8849C124.65 31.6837 124.438 31.091 124.716 30.371C125.852 27.4318 131.096 27.4315 132.232 30.3709C132.51 31.091 132.298 31.6838 131.868 32.8849L131.861 32.9044C131.832 32.9856 131.817 33.0712 131.817 33.1574V36.8666C131.817 36.9172 131.858 36.9583 131.908 36.9583H131.973C131.988 36.9583 132 36.9705 132 36.9856C132 37.0007 132.012 37.0129 132.027 37.0129H140.973C140.988 37.0129 141 37.0007 141 36.9856C141 36.9705 141.012 36.9583 141.027 36.9583H141.447C141.693 36.9583 141.893 36.7583 141.893 36.5116V33.1574C141.893 33.0711 141.879 32.9855 141.849 32.9044L141.842 32.8849C141.412 31.6837 141.2 31.091 141.478 30.371C142.614 27.4318 147.858 27.4315 148.994 30.3709C149.272 31.091 149.06 31.6838 148.629 32.8849L148.622 32.9044C148.593 32.9856 148.578 33.0712 148.578 33.1574V36.7475C148.578 36.8639 148.673 36.9583 148.789 36.9583H148.973C148.988 36.9583 149 36.9705 149 36.9856C149 37.0007 149.012 37.0129 149.027 37.0129H157.869C157.941 37.0129 158 36.954 158 36.8814C158 36.8088 158.059 36.75 158.131 36.75H159.642H162.181H164.72H167.259H169.798H172.337H174.876H177.415H179.954H182.493C182.769 36.75 182.993 36.5261 182.993 36.25V30.6705C182.993 29.5444 183.906 28.6314 185.032 28.6314H187.571C187.847 28.6314 188.071 28.4076 188.071 28.1314V25.1314V24.4009C188.071 23.9759 188.415 23.6314 188.84 23.6314C189.265 23.6314 189.61 23.9759 189.61 24.4009V26.6314C189.61 26.9076 189.834 27.1314 190.11 27.1314H192.649H195.188H197.727H200.266H202.805H205.344H207.883H210.422H212.961H215.5H218.039H220.578H223.117H225.656H228.195H230.734H233.273H235.177C235.453 27.1314 235.677 26.9076 235.677 26.6314V24.2807C235.677 23.9221 235.968 23.6314 236.326 23.6314C236.685 23.6314 236.975 23.9221 236.975 24.2807V25.1314V28.1314C236.975 28.4076 237.199 28.6314 237.475 28.6314H239.817C240.834 28.6314 241.659 29.4561 241.659 30.4733V36.25C241.659 36.5261 241.883 36.75 242.159 36.75H244.698H247.237H249.776H252.315H254.854H257.393H259.932H262.471H265.01H267.869C267.941 36.75 268 36.8088 268 36.8814C268 36.954 268.059 37.0129 268.131 37.0129H276.973C276.988 37.0129 277 37.0007 277 36.9856V36.9775C277 36.9669 277.009 36.9583 277.019 36.9583C277.03 36.9583 277.038 36.9497 277.038 36.939V33.1574C277.038 33.0711 277.024 32.9855 276.994 32.9044L276.987 32.8849C276.557 31.6837 276.345 31.091 276.623 30.371C277.759 27.4318 283.003 27.4315 284.139 30.3709C284.417 31.091 284.205 31.6838 283.774 32.8849L283.767 32.9044C283.738 32.9856 283.723 33.0712 283.723 33.1574V36.82C283.723 36.8963 283.785 36.9583 283.862 36.9583H283.973C283.988 36.9583 284 36.9705 284 36.9856C284 37.0007 284.012 37.0129 284.027 37.0129H292.973C292.988 37.0129 293 37.0007 293 36.9856C293 36.9705 293.012 36.9583 293.027 36.9583H293.4C293.621 36.9583 293.8 36.7791 293.8 36.5582V33.1574C293.8 33.0711 293.785 32.9855 293.756 32.9044L293.749 32.8849C293.319 31.6837 293.106 31.091 293.385 30.371C294.521 27.4318 299.765 27.4315 300.9 30.3709C301.179 31.091 300.966 31.6838 300.536 32.8849L300.529 32.9044C300.5 32.9856 300.485 33.0712 300.485 33.1574V36.7008C300.485 36.843 300.6 36.9583 300.743 36.9583H300.973C300.988 36.9583 301 36.9705 301 36.9856C301 37.0007 301.012 37.0129 301.027 37.0129H309.973C309.988 37.0129 310 37.0007 310 36.9856C310 36.9705 310.012 36.9583 310.027 36.9583H310.281C310.436 36.9583 310.562 36.8325 310.562 36.6773V33.1574C310.562 33.0711 310.547 32.9855 310.518 32.9044L310.511 32.8849C310.08 31.6837 309.868 31.091 310.146 30.371C311.283 27.4318 316.526 27.4315 317.662 30.3709C317.94 31.091 317.728 31.6838 317.298 32.8849L317.291 32.9044C317.262 32.9856 317.247 33.0712 317.247 33.1574V36.5817C317.247 36.7897 317.415 36.9583 317.623 36.9583H317.973C317.988 36.9583 318 36.9705 318 36.9856C318 37.0007 318.012 37.0129 318.027 37.0129H326.973C326.988 37.0129 327 37.0007 327 36.9856C327 36.9705 327.012 36.9583 327.027 36.9583H327.162C327.251 36.9583 327.323 36.8859 327.323 36.7966V33.1574C327.323 33.0711 327.308 32.9855 327.279 32.9044L327.272 32.8849C326.842 31.6837 326.63 31.091 326.908 30.371C328.044 27.4318 333.288 27.4315 334.424 30.3709C334.702 31.091 334.49 31.6838 334.059 32.8849L334.052 32.9044C334.023 32.9856 334.008 33.0712 334.008 33.1574V35.5087C334.008 35.511 334.006 35.5129 334.004 35.5129C334.002 35.5129 334 35.5148 334 35.5171V36.2629C334 36.6771 334.336 37.0129 334.75 37.0129H342.973C342.988 37.0129 343 37.0007 343 36.9856C343 36.9705 343.012 36.9583 343.027 36.9583H343.543C343.842 36.9583 344.085 36.7154 344.085 36.4157V33.1574C344.085 33.0711 344.07 32.9855 344.041 32.9044L344.034 32.8849C343.604 31.6837 343.391 31.091 343.67 30.371C344.806 27.4318 350.05 27.4315 351.185 30.3709C351.464 31.091 351.251 31.6838 350.821 32.8849L350.814 32.9044C350.785 32.9856 350.77 33.0712 350.77 33.1574V36.8433C350.77 36.9068 350.822 36.9583 350.885 36.9583H350.973C350.988 36.9583 351 36.9705 351 36.9856C351 37.0007 351.012 37.0129 351.027 37.0129H359.973C359.988 37.0129 360 37.0007 360 36.9856C360 36.9705 360.012 36.9583 360.027 36.9583H360.423C360.657 36.9583 360.847 36.7687 360.847 36.5349V33.1574C360.847 33.0711 360.832 32.9855 360.803 32.9044L360.796 32.8849C360.365 31.6837 360.153 31.091 360.431 30.371C361.568 27.4318 366.811 27.4315 367.947 30.3709C368.225 31.091 368.013 31.6838 367.583 32.8849L367.576 32.9044C367.547 32.9856 367.532 33.0712 367.532 33.1574V36.7241C367.532 36.8534 367.637 36.9583 367.766 36.9583H367.973C367.988 36.9583 368 36.9705 368 36.9856C368 37.0007 368.012 37.0129 368.027 37.0129H376.973C376.988 37.0129 377 37.0007 377 36.9856C377 36.9705 377.012 36.9583 377.027 36.9583H377.304C377.472 36.9583 377.608 36.8221 377.608 36.6541V33.1574C377.608 33.0711 377.593 32.9855 377.564 32.9044L377.557 32.8849C377.127 31.6837 376.915 31.091 377.193 30.371C378.329 27.4318 383.573 27.4315 384.709 30.3709C384.987 31.091 384.774 31.6838 384.344 32.8849L384.337 32.9044C384.308 32.9856 384.293 33.0712 384.293 33.1574V36.6049C384.293 36.8 384.451 36.9583 384.647 36.9583H384.973C384.988 36.9583 385 36.9705 385 36.9856C385 37.0007 385.012 37.0129 385.027 37.0129H393.973C393.988 37.0129 394 37.0007 394 36.9856C394 36.9705 394.012 36.9583 394.027 36.9583H394.185C394.287 36.9583 394.37 36.8754 394.37 36.7733V33.1574C394.37 33.0711 394.355 32.9855 394.326 32.9044L394.319 32.8849C393.889 31.6837 393.676 31.091 393.955 30.371C395.091 27.4318 400.335 27.4315 401.47 30.3709C401.748 31.091 401.536 31.6838 401.106 32.8849L401.099 32.9044C401.07 32.9856 401.055 33.0712 401.055 33.1574V36.4857C401.055 36.7467 401.267 36.9583 401.527 36.9583H401.973C401.988 36.9583 402 36.9705 402 36.9856C402 37.0007 402.012 37.0129 402.027 37.0129H410.973C410.988 37.0129 411 37.0007 411 36.9856C411 36.9705 411.012 36.9583 411.027 36.9583H411.066C411.102 36.9583 411.132 36.9288 411.132 36.8924V33.1574C411.132 33.0711 411.117 32.9855 411.088 32.9044L411.081 32.8849C410.65 31.6837 410.438 31.091 410.716 30.371C411.852 27.4318 417.096 27.4316 418.232 30.3709C418.51 31.091 418.298 31.6838 417.868 32.8849L417.861 32.9044C417.832 32.9856 417.817 33.0712 417.817 33.1574V36.8666C417.817 36.9172 417.858 36.9583 417.908 36.9583H417.973C417.988 36.9583 418 36.9705 418 36.9856C418 37.0007 418.012 37.0129 418.027 37.0129H426.973C426.988 37.0129 427 37.0007 427 36.9856C427 36.9705 427.012 36.9583 427.027 36.9583H427.447C427.693 36.9583 427.893 36.7583 427.893 36.5116V33.1574C427.893 33.0711 427.879 32.9855 427.849 32.9044L427.842 32.8849C427.412 31.6837 427.2 31.091 427.478 30.371C428.614 27.4318 433.858 27.4316 434.994 30.3709C435.272 31.091 435.06 31.6838 434.629 32.8849L434.622 32.9044C434.593 32.9856 434.578 33.0712 434.578 33.1574V36.7475C434.578 36.8639 434.673 36.9583 434.789 36.9583H434.973C434.988 36.9583 435 36.9705 435 36.9856C435 37.0007 435.012 37.0129 435.027 37.0129H443.25C443.664 37.0129 444 36.6771 444 36.2629C444 35.8487 443.664 35.5129 443.25 35.5129H437.971C436.926 35.5129 436.078 34.6657 436.078 33.6207V33.3829C436.078 33.3203 436.089 33.2583 436.111 33.1995C436.477 32.1894 436.878 31.0852 436.393 29.8303C435.901 28.5577 434.56 27.2647 431.968 25.5317C431.848 25.4392 431.618 25.2789 431.299 25.264C430.959 25.2481 430.691 25.404 430.518 25.5229C427.917 27.2602 426.572 28.5554 426.079 29.8302C425.594 31.0852 425.995 32.1895 426.361 33.1996C426.383 33.2584 426.393 33.3204 426.393 33.3829V33.6208C426.393 34.6658 425.546 35.5129 424.501 35.5129H421.209C420.164 35.5129 419.317 34.6657 419.317 33.6207V33.3829C419.317 33.3203 419.328 33.2583 419.349 33.1995C419.715 32.1894 420.116 31.0852 419.631 29.8303C419.139 28.5577 417.799 27.2647 415.206 25.5317C415.086 25.4392 414.856 25.2789 414.538 25.264C414.198 25.2481 413.929 25.404 413.757 25.5228C411.155 27.2602 409.81 28.5554 409.317 29.8302C408.832 31.0852 409.233 32.1895 409.599 33.1996C409.621 33.2584 409.632 33.3204 409.632 33.3829V33.6208C409.632 34.6658 408.785 35.5129 407.74 35.5129H404.447C403.402 35.5129 402.555 34.6658 402.555 33.6209V33.3829C402.555 33.3203 402.566 33.2583 402.587 33.1995C402.954 32.1894 403.354 31.0852 402.869 29.8303C402.378 28.5577 401.037 27.2647 398.445 25.5317C398.325 25.4392 398.094 25.2789 397.776 25.264C397.436 25.2481 397.167 25.404 396.995 25.5229C394.393 27.2602 393.048 28.5554 392.555 29.8302C392.07 31.0852 392.471 32.1895 392.838 33.1996C392.859 33.2584 392.87 33.3204 392.87 33.3829V33.6211C392.87 34.6659 392.023 35.5129 390.978 35.5129H387.685C386.64 35.5129 385.793 34.6658 385.793 33.6209V33.3829C385.793 33.3203 385.804 33.2583 385.825 33.1995C386.192 32.1894 386.593 31.0852 386.108 29.8303C385.616 28.5577 384.275 27.2647 381.683 25.5317C381.563 25.4392 381.332 25.2789 381.014 25.264C380.674 25.2481 380.406 25.404 380.233 25.5228C377.631 27.2602 376.286 28.5554 375.794 29.8302C375.309 31.0852 375.709 32.1895 376.076 33.1996C376.097 33.2584 376.108 33.3204 376.108 33.3829V33.6211C376.108 34.6659 375.261 35.5129 374.216 35.5129H370.924C369.879 35.5129 369.032 34.6658 369.032 33.6209V33.3829C369.032 33.3203 369.043 33.2583 369.064 33.1995C369.43 32.1894 369.831 31.0852 369.346 29.8303C368.854 28.5577 367.514 27.2647 364.922 25.5317C364.802 25.4392 364.571 25.2789 364.253 25.264C363.913 25.2481 363.644 25.404 363.472 25.5229C360.87 27.2602 359.525 28.5554 359.032 29.8302C358.547 31.0852 358.948 32.1895 359.315 33.1996C359.336 33.2584 359.347 33.3204 359.347 33.3829V33.6211C359.347 34.6659 358.5 35.5129 357.455 35.5129H354.162C353.117 35.5129 352.27 34.6658 352.27 33.6209V33.3829C352.27 33.3203 352.281 33.2583 352.302 33.1995C352.669 32.1894 353.069 31.0852 352.585 29.8303C352.093 28.5577 350.752 27.2647 348.16 25.5317C348.04 25.4392 347.809 25.2789 347.491 25.264C347.151 25.2481 346.882 25.404 346.71 25.5228C344.108 27.2602 342.763 28.5554 342.271 29.8302C341.785 31.0852 342.186 32.1895 342.553 33.1996C342.574 33.2584 342.585 33.3204 342.585 33.3829V33.6211C342.585 34.6659 341.738 35.5129 340.693 35.5129H337.4C336.355 35.5129 335.508 34.6658 335.508 33.6209V33.3829C335.508 33.3203 335.519 33.2583 335.541 33.1995C335.907 32.1894 336.308 31.0852 335.823 29.8303C335.331 28.5577 333.99 27.2647 331.398 25.5317C331.278 25.4392 331.047 25.2789 330.729 25.264C330.389 25.2481 330.121 25.404 329.948 25.5229C327.346 27.2602 326.002 28.5554 325.509 29.8302C325.024 31.0852 325.425 32.1895 325.791 33.1996C325.812 33.2584 325.823 33.3204 325.823 33.3829V33.6211C325.823 34.6659 324.976 35.5129 323.932 35.5129H320.639C319.594 35.5129 318.747 34.6658 318.747 33.6209V33.3829C318.747 33.3203 318.758 33.2583 318.779 33.1995C319.146 32.1894 319.546 31.0852 319.061 29.8303C318.57 28.5577 317.229 27.2647 314.637 25.5317C314.517 25.4392 314.286 25.2789 313.968 25.264C313.628 25.2481 313.359 25.404 313.187 25.5228C310.585 27.2602 309.24 28.5554 308.747 29.8302C308.262 31.0852 308.663 32.1895 309.03 33.1996C309.051 33.2584 309.062 33.3204 309.062 33.3829V33.6211C309.062 34.6659 308.215 35.5129 307.17 35.5129H303.877C302.832 35.5129 301.985 34.6658 301.985 33.6209V33.3829C301.985 33.3203 301.996 33.2583 302.017 33.1995C302.384 32.1894 302.784 31.0852 302.3 29.8303C301.808 28.5577 300.467 27.2647 297.875 25.5317C297.755 25.4392 297.524 25.2789 297.206 25.264C296.866 25.2481 296.597 25.404 296.425 25.5229C293.823 27.2602 292.478 28.5554 291.986 29.8302C291.5 31.0852 291.901 32.1895 292.268 33.1996C292.289 33.2584 292.3 33.3204 292.3 33.3829V33.6211C292.3 34.6659 291.453 35.5129 290.408 35.5129H287.115C286.07 35.5129 285.223 34.6658 285.223 33.6209V33.3829C285.223 33.3203 285.234 33.2583 285.256 33.1995C285.622 32.1894 286.023 31.0852 285.538 29.8303C285.046 28.5577 283.706 27.2647 281.113 25.5317C280.993 25.4392 280.763 25.2789 280.445 25.264C280.104 25.2481 279.836 25.404 279.663 25.5229C277.062 27.2602 275.717 28.5554 275.224 29.8302C274.739 31.0852 275.14 32.1895 275.506 33.1996C275.528 33.2584 275.538 33.3204 275.538 33.3829V33.6211C275.538 34.6659 274.691 35.5129 273.647 35.5129H272.111C270.218 35.5129 268.684 33.9718 268.684 32.0789C268.684 30.1786 270.224 28.6314 272.124 28.6314H274.531C274.807 28.6314 275.031 28.4076 275.031 28.1314V25.1314C275.031 23.2891 275.818 21.5536 276.277 19.7693C276.343 19.5127 276.393 19.2531 276.428 18.9878C276.583 17.8326 276.463 16.5903 276.298 15.0771C276.251 14.6484 275.72 14.4762 275.43 14.7958C274.38 15.9546 273.672 16.9257 273.168 17.9783ZM158 35.6314C158 35.6969 158.053 35.75 158.119 35.75H158.571C158.886 35.75 159.142 35.4943 159.142 35.1789V29.7183C159.142 29.118 158.655 28.6314 158.055 28.6314H157.337C157.133 28.6314 156.968 28.7964 156.968 29V34.75V34.9971C156.968 35.282 157.199 35.5129 157.484 35.5129H157.881C157.947 35.5129 158 35.566 158 35.6314ZM162.181 12.6314H182.835C183.158 12.6314 183.382 12.9572 183.3 13.2696C183.243 13.4854 183.054 13.6314 182.831 13.6314H160.717C160.522 13.6314 160.345 13.7448 160.263 13.9219L157.068 20.8431C156.552 21.9606 154.946 21.9055 154.508 20.7553C154.365 20.3799 154.389 19.9598 154.589 19.6113C154.849 19.1582 155.114 18.7335 155.38 18.3054L155.38 18.305C155.579 17.9854 155.779 17.6638 155.98 17.327C156.583 16.3134 157.152 15.2178 157.582 13.7742C157.629 13.6178 157.596 13.4485 157.495 13.3206C157.433 13.2426 157.362 13.164 157.297 13.093L157.268 13.062L157.268 13.0616L157.266 13.059C157.208 12.9964 157.152 12.9354 157.096 12.8696C156.963 12.7162 156.842 12.5552 156.749 12.3716C156.576 12.0288 156.473 11.5473 156.744 10.8022C156.807 10.6285 156.769 10.4342 156.646 10.2969C155.374 8.88447 154.988 7.85687 154.963 6.74495C154.956 6.44655 154.975 6.13659 155.014 5.80442C155.048 5.51914 155.443 5.47486 155.559 5.73792C155.642 5.92777 155.727 6.12286 155.814 6.3263C156.129 7.07179 156.387 7.68052 156.798 8.31939C157.209 8.96041 157.763 9.61497 158.658 10.4892L158.658 10.4893C159.49 11.3012 160.348 11.775 161.958 12.5788C162.027 12.6134 162.104 12.6314 162.181 12.6314ZM159.696 17.5358C160.514 15.7652 162.286 14.6314 164.236 14.6314H180.189C181.751 14.6314 182.979 15.8755 183.52 17.3409C183.705 17.8423 183.823 18.4836 183.772 19.0156C183.723 19.5272 183.724 19.9674 183.781 20.4586C183.838 20.9418 183.897 21.4257 183.897 21.9122V23.1314C183.897 23.4076 184.121 23.6314 184.397 23.6314H186.571C186.847 23.6314 187.071 23.8553 187.071 24.1314C187.071 24.4076 186.847 24.6314 186.571 24.6314H164.236C160.587 24.6314 158.167 20.8489 159.696 17.5358ZM185.397 22.6314C185.121 22.6314 184.897 22.4076 184.897 22.1314C184.897 21.8553 185.121 21.6314 185.397 21.6314H186.301H239.62H239.89C240.166 21.6314 240.39 21.8553 240.39 22.1314C240.39 22.4076 240.166 22.6314 239.89 22.6314H237.475H235.177H233.273H230.734H228.195H225.656H223.117H220.578H218.039H215.5H212.961H210.422H207.883H205.344H202.805H200.266H197.727H195.188H192.649H190.11H187.571H185.397ZM241.39 23.1314V22.8751C241.39 21.8063 241.825 20.7802 241.879 19.7127C241.891 19.4637 241.865 19.2177 241.8 18.9658C241.646 18.3671 241.581 17.6245 241.721 17.0222C242.026 15.7026 243.093 14.6314 244.448 14.6314H261.88C263.682 14.6314 265.147 15.1083 266.084 16.6479C268.16 20.0586 265.53 24.6314 261.538 24.6314H238.475C238.199 24.6314 237.975 24.4076 237.975 24.1314C237.975 23.8553 238.199 23.6314 238.475 23.6314H240.89C241.166 23.6314 241.39 23.4076 241.39 23.1314ZM237.975 26.6314C237.975 26.0792 238.423 25.6314 238.975 25.6314H270.723H271.357H271.708H273.031C273.583 25.6314 274.031 26.0792 274.031 26.6314C274.031 27.1837 273.583 27.6314 273.031 27.6314H268.184H265.01H262.471H259.932H257.393H254.854H252.315H249.776H247.237H244.698H242.159H239.817H238.975C238.423 27.6314 237.975 27.1837 237.975 26.6314ZM274.031 23.8235C274.031 24.2697 273.669 24.6314 273.223 24.6314C272.663 24.6314 272.273 24.0748 272.464 23.548L273.097 21.8019C273.107 21.7741 273.115 21.7455 273.12 21.7164C273.355 20.3484 273.623 19.344 274.07 18.4103C274.461 17.5952 275.556 17.916 275.443 18.8126C275.441 18.8268 275.439 18.841 275.437 18.8552C275.305 19.844 274.943 20.753 274.132 21.8308C274.066 21.9175 274.031 22.023 274.031 22.1314V23.8235ZM184.891 18.2129C184.777 18.9018 184.725 19.3863 184.739 19.865C184.752 20.3088 185.141 20.6314 185.585 20.6314C185.873 20.6314 186.14 20.4906 186.325 20.2693C186.513 20.0439 186.7 19.8569 186.9 19.7016C187.304 19.387 187.63 18.9166 187.508 18.4187C187.433 18.1143 187.341 17.8486 187.225 17.6021C186.974 17.0697 186.593 16.5897 185.96 15.9965C185.88 15.9214 185.826 15.8221 185.808 15.7138C185.643 14.7265 185.432 14.0812 185.155 13.5466C184.99 13.2288 184.798 12.9415 184.566 12.6361C184.564 12.6332 184.56 12.6314 184.556 12.6314C184.551 12.6314 184.547 12.6346 184.545 12.6393C184.339 13.2175 184.197 13.7257 184.122 14.2081C183.947 15.3408 184.129 16.3895 184.85 17.9183C184.893 18.0101 184.907 18.1128 184.891 18.2129ZM238.675 20.5178C238.729 20.5554 238.699 20.6314 238.633 20.6314H187.566C187.488 20.6314 187.452 20.5387 187.513 20.4912C187.735 20.3191 187.973 20.2118 188.336 20.1143C188.512 20.0667 188.649 19.9266 188.692 19.7488L190.399 12.679C190.689 11.4777 191.764 10.6314 193 10.6314H230.734C232.944 10.6314 234.861 12.1598 235.353 14.3148L236.594 19.7428C236.642 19.9555 236.823 20.1121 237.041 20.1298C237.992 20.2071 238.435 20.3528 238.675 20.5178ZM155.639 25.6314H186.071C186.623 25.6314 187.071 26.0792 187.071 26.6314C187.071 27.1837 186.623 27.6314 186.071 27.6314H185.032H182.493H179.954H177.415H174.876H172.337H169.798H167.259H164.72H162.181H159.642H156.468H152.89C152.338 27.6314 151.89 27.1837 151.89 26.6314C151.89 26.0792 152.338 25.6314 152.89 25.6314H155.639ZM154.279 22.9647C154.585 23.7693 153.991 24.6314 153.13 24.6314C152.447 24.6314 151.867 24.0694 151.994 23.3985C152.055 23.0772 152.15 22.7244 152.302 22.2991C152.361 22.134 152.329 21.9503 152.218 21.8147C151.433 20.8568 150.958 20.1153 150.711 19.3603C150.637 19.1317 150.582 18.8975 150.547 18.651C150.489 18.2471 150.961 18.0386 151.271 18.303C152.03 18.9481 152.53 19.3738 153.069 20.0708C153.22 20.2655 153.335 20.4851 153.422 20.7151L154.279 22.9647ZM160.912 35.75C160.487 35.75 160.142 35.4055 160.142 34.9805V29.4009C160.142 28.976 160.487 28.6314 160.912 28.6314C161.337 28.6314 161.681 28.976 161.681 29.4009V34.9805C161.681 35.4055 161.337 35.75 160.912 35.75ZM163.451 35.75C163.026 35.75 162.681 35.4055 162.681 34.9805V29.4009C162.681 28.976 163.026 28.6314 163.451 28.6314C163.876 28.6314 164.22 28.976 164.22 29.4009V34.9805C164.22 35.4055 163.876 35.75 163.451 35.75ZM165.99 35.75C165.565 35.75 165.22 35.4055 165.22 34.9805V29.4009C165.22 28.976 165.565 28.6314 165.99 28.6314C166.415 28.6314 166.759 28.976 166.759 29.4009V34.9805C166.759 35.4055 166.415 35.75 165.99 35.75ZM168.529 35.75C168.104 35.75 167.759 35.4055 167.759 34.9805V29.4009C167.759 28.976 168.104 28.6314 168.529 28.6314C168.953 28.6314 169.298 28.976 169.298 29.4009V34.9805C169.298 35.4055 168.953 35.75 168.529 35.75ZM171.067 35.75C170.643 35.75 170.298 35.4055 170.298 34.9805V29.4009C170.298 28.976 170.643 28.6314 171.067 28.6314C171.492 28.6314 171.837 28.976 171.837 29.4009L171.837 34.9805C171.837 35.4055 171.492 35.75 171.067 35.75ZM173.606 35.75C173.182 35.75 172.837 35.4055 172.837 34.9805L172.837 29.4009C172.837 28.976 173.181 28.6314 173.606 28.6314C174.031 28.6314 174.376 28.976 174.376 29.4009V34.9805C174.376 35.4055 174.031 35.75 173.606 35.75ZM176.145 35.75C175.72 35.75 175.376 35.4055 175.376 34.9805V29.4009C175.376 28.976 175.72 28.6314 176.145 28.6314C176.57 28.6314 176.915 28.976 176.915 29.4009L176.915 34.9805C176.915 35.4055 176.57 35.75 176.145 35.75ZM178.684 35.75C178.259 35.75 177.915 35.4055 177.915 34.9805L177.915 29.4009C177.915 28.976 178.259 28.6314 178.684 28.6314C179.109 28.6314 179.454 28.976 179.454 29.4009L179.454 34.9805C179.454 35.4055 179.109 35.75 178.684 35.75ZM181.223 35.75C180.798 35.75 180.454 35.4055 180.454 34.9805L180.454 29.4009C180.454 28.976 180.798 28.6314 181.223 28.6314C181.648 28.6314 181.993 28.976 181.993 29.4009V34.9805C181.993 35.4055 181.648 35.75 181.223 35.75ZM191.379 26.1314C190.954 26.1314 190.61 25.7869 190.61 25.362V24.4009C190.61 23.976 190.954 23.6314 191.379 23.6314C191.804 23.6314 192.149 23.976 192.149 24.4009V25.362C192.149 25.7869 191.804 26.1314 191.379 26.1314ZM193.918 26.1314C193.493 26.1314 193.149 25.7869 193.149 25.3619V24.4009C193.149 23.976 193.493 23.6314 193.918 23.6314C194.343 23.6314 194.688 23.976 194.688 24.4009V25.3619C194.688 25.7869 194.343 26.1314 193.918 26.1314ZM196.457 26.1314C196.032 26.1314 195.688 25.7869 195.688 25.362V24.4009C195.688 23.976 196.032 23.6314 196.457 23.6314C196.882 23.6314 197.227 23.976 197.227 24.4009V25.362C197.227 25.7869 196.882 26.1314 196.457 26.1314ZM198.996 26.1314C198.571 26.1314 198.227 25.7869 198.227 25.362V24.4009C198.227 23.976 198.571 23.6314 198.996 23.6314C199.421 23.6314 199.766 23.976 199.766 24.4009V25.362C199.766 25.7869 199.421 26.1314 198.996 26.1314ZM201.535 26.1314C201.11 26.1314 200.766 25.7869 200.766 25.362V24.4009C200.766 23.976 201.11 23.6314 201.535 23.6314C201.96 23.6314 202.305 23.976 202.305 24.4009V25.362C202.305 25.7869 201.96 26.1314 201.535 26.1314ZM204.074 26.1314C203.649 26.1314 203.305 25.7869 203.305 25.362V24.4009C203.305 23.976 203.649 23.6314 204.074 23.6314C204.499 23.6314 204.844 23.976 204.844 24.4009V25.362C204.844 25.7869 204.499 26.1314 204.074 26.1314ZM206.613 26.1314C206.188 26.1314 205.844 25.7869 205.844 25.362V24.4009C205.844 23.976 206.188 23.6314 206.613 23.6314C207.038 23.6314 207.383 23.976 207.383 24.4009V25.362C207.383 25.7869 207.038 26.1314 206.613 26.1314ZM209.152 26.1314C208.727 26.1314 208.383 25.7869 208.383 25.362V24.4009C208.383 23.976 208.727 23.6314 209.152 23.6314C209.577 23.6314 209.922 23.976 209.922 24.4009V25.362C209.922 25.7869 209.577 26.1314 209.152 26.1314ZM211.691 26.1314C211.266 26.1314 210.922 25.7869 210.922 25.362V24.4009C210.922 23.976 211.266 23.6314 211.691 23.6314C212.116 23.6314 212.461 23.976 212.461 24.4009V25.362C212.461 25.7869 212.116 26.1314 211.691 26.1314ZM214.23 26.1314C213.805 26.1314 213.461 25.7869 213.461 25.362V24.4009C213.461 23.976 213.805 23.6314 214.23 23.6314C214.655 23.6314 215 23.976 215 24.4009V25.362C215 25.7869 214.655 26.1314 214.23 26.1314ZM216.769 26.1314C216.344 26.1314 216 25.7869 216 25.362V24.4009C216 23.976 216.344 23.6314 216.769 23.6314C217.194 23.6314 217.539 23.976 217.539 24.4009V25.362C217.539 25.7869 217.194 26.1314 216.769 26.1314ZM219.308 26.1314C218.883 26.1314 218.539 25.7869 218.539 25.362V24.4009C218.539 23.976 218.883 23.6314 219.308 23.6314C219.733 23.6314 220.078 23.976 220.078 24.4009V25.362C220.078 25.7869 219.733 26.1314 219.308 26.1314ZM221.847 26.1314C221.422 26.1314 221.078 25.7869 221.078 25.362V24.4009C221.078 23.976 221.422 23.6314 221.847 23.6314C222.272 23.6314 222.617 23.976 222.617 24.4009V25.362C222.617 25.7869 222.272 26.1314 221.847 26.1314ZM224.386 26.1314C223.961 26.1314 223.617 25.7869 223.617 25.362V24.4009C223.617 23.976 223.961 23.6314 224.386 23.6314C224.811 23.6314 225.156 23.976 225.156 24.4009V25.362C225.156 25.7869 224.811 26.1314 224.386 26.1314ZM226.925 26.1314C226.5 26.1314 226.156 25.7869 226.156 25.362V24.4009C226.156 23.976 226.5 23.6314 226.925 23.6314C227.35 23.6314 227.695 23.976 227.695 24.4009V25.362C227.695 25.7869 227.35 26.1314 226.925 26.1314ZM229.464 26.1314C229.039 26.1314 228.695 25.7869 228.695 25.362V24.4009C228.695 23.976 229.039 23.6314 229.464 23.6314C229.889 23.6314 230.234 23.976 230.234 24.4009V25.362C230.234 25.7869 229.889 26.1314 229.464 26.1314ZM232.003 26.1314C231.578 26.1314 231.234 25.7869 231.234 25.3619V24.4009C231.234 23.976 231.578 23.6314 232.003 23.6314C232.428 23.6314 232.773 23.976 232.773 24.4009V25.3619C232.773 25.7869 232.428 26.1314 232.003 26.1314ZM234.225 26.1314C233.975 26.1314 233.773 25.929 233.773 25.6793V24.0836C233.773 23.8339 233.975 23.6314 234.225 23.6314C234.474 23.6314 234.677 23.8339 234.677 24.0836V25.6793C234.677 25.929 234.474 26.1314 234.225 26.1314ZM243.429 35.75C243.004 35.75 242.659 35.4055 242.659 34.9805V29.4009C242.659 28.976 243.004 28.6314 243.429 28.6314C243.854 28.6314 244.198 28.976 244.198 29.4009V34.9805C244.198 35.4055 243.854 35.75 243.429 35.75ZM245.968 35.75C245.543 35.75 245.198 35.4055 245.198 34.9805V29.4009C245.198 28.976 245.543 28.6314 245.968 28.6314C246.393 28.6314 246.737 28.976 246.737 29.4009V34.9805C246.737 35.4055 246.393 35.75 245.968 35.75ZM248.507 35.75C248.082 35.75 247.737 35.4055 247.737 34.9805V29.4009C247.737 28.976 248.082 28.6314 248.507 28.6314C248.932 28.6314 249.276 28.976 249.276 29.4009V34.9805C249.276 35.4055 248.932 35.75 248.507 35.75ZM251.046 35.75C250.621 35.75 250.276 35.4055 250.276 34.9805V29.4009C250.276 28.976 250.621 28.6314 251.046 28.6314C251.471 28.6314 251.815 28.976 251.815 29.4009V34.9805C251.815 35.4055 251.471 35.75 251.046 35.75ZM253.585 35.75C253.16 35.75 252.815 35.4055 252.815 34.9805V29.4009C252.815 28.976 253.16 28.6314 253.585 28.6314C254.009 28.6314 254.354 28.976 254.354 29.4009V34.9805C254.354 35.4055 254.009 35.75 253.585 35.75ZM256.124 35.75C255.699 35.75 255.354 35.4055 255.354 34.9805V29.4009C255.354 28.976 255.699 28.6314 256.124 28.6314C256.548 28.6314 256.893 28.976 256.893 29.4009V34.9805C256.893 35.4055 256.548 35.75 256.124 35.75ZM258.663 35.75C258.238 35.75 257.893 35.4055 257.893 34.9805V29.4009C257.893 28.976 258.238 28.6314 258.663 28.6314C259.087 28.6314 259.432 28.976 259.432 29.4009V34.9805C259.432 35.4055 259.087 35.75 258.663 35.75ZM261.201 35.75C260.777 35.75 260.432 35.4055 260.432 34.9805V29.4009C260.432 28.976 260.777 28.6314 261.201 28.6314C261.626 28.6314 261.971 28.976 261.971 29.4009V34.9805C261.971 35.4055 261.626 35.75 261.201 35.75ZM263.74 35.75C263.315 35.75 262.971 35.4055 262.971 34.9805V29.4009C262.971 28.976 263.315 28.6314 263.74 28.6314C264.165 28.6314 264.51 28.976 264.51 29.4009V34.9805C264.51 35.4055 264.165 35.75 263.74 35.75ZM266.597 35.75C265.997 35.75 265.51 35.2634 265.51 34.6631V29.7183C265.51 29.1181 265.997 28.6314 266.597 28.6314C267.197 28.6314 267.684 29.1181 267.684 29.7183V34.6631C267.684 35.2634 267.197 35.75 266.597 35.75ZM185.63 3.38516C185.581 3.15256 185.875 3.0623 185.998 3.26562C186.412 3.94929 186.814 4.57395 187.229 5.1294C187.256 5.16549 187.215 5.21382 187.175 5.19229C186.632 4.89636 186.284 4.60332 186.055 4.31463C185.829 4.02983 185.702 3.72765 185.63 3.38516ZM-5.89225 26.1679C-5.89212 26.1681 -5.89182 26.1679 -5.89189 26.1677C-5.89189 26.1677 -5.8919 26.1676 -5.89192 26.1676L-5.90707 26.1457L-5.89225 26.1679ZM10.8695 26.1679C10.8696 26.1681 10.8699 26.1679 10.8698 26.1677C10.8698 26.1677 10.8698 26.1676 10.8698 26.1676L10.8547 26.1457L10.8695 26.1679ZM27.6315 26.1676C27.6315 26.1676 27.6315 26.1677 27.6315 26.1677C27.6316 26.1679 27.6313 26.1681 27.6312 26.1679L27.6164 26.1457L27.6315 26.1676ZM44.3927 26.1679C44.3928 26.1681 44.3931 26.1679 44.393 26.1677C44.393 26.1677 44.393 26.1676 44.393 26.1676L44.3778 26.1457L44.3927 26.1679ZM61.1547 26.1676C61.1547 26.1676 61.1547 26.1677 61.1547 26.1677C61.1548 26.1679 61.1545 26.1681 61.1544 26.1679L61.1396 26.1457L61.1547 26.1676ZM77.9161 26.1679C77.9162 26.1681 77.9165 26.1679 77.9165 26.1677C77.9165 26.1677 77.9164 26.1676 77.9164 26.1676L77.9013 26.1457L77.9161 26.1679ZM94.6779 26.1676C94.6779 26.1676 94.6779 26.1677 94.6779 26.1677C94.678 26.1679 94.6777 26.1681 94.6776 26.1679L94.6628 26.1457L94.6779 26.1676ZM111.439 26.1679C111.439 26.1681 111.44 26.1679 111.44 26.1677C111.44 26.1677 111.44 26.1676 111.44 26.1676L111.424 26.1457L111.439 26.1679ZM128.201 26.1676C128.201 26.1676 128.201 26.1677 128.201 26.1677C128.201 26.1679 128.201 26.1681 128.201 26.1679L128.186 26.1457L128.201 26.1676ZM144.963 26.1679C144.963 26.1681 144.963 26.1679 144.963 26.1677C144.963 26.1677 144.963 26.1676 144.963 26.1676L144.948 26.1457L144.963 26.1679Z" fill="url(#paint0_linear_1754_2883)"/>
<defs>
<linearGradient id="paint0_linear_1754_2883" x1="214.5" y1="-4.80768" x2="214.5" y2="37.0129" gradientUnits="userSpaceOnUse">
<stop stop-color="#F3C6AF"/>
</linearGradient>
</defs>
</svg>
